<svg width="100" height="100" viewBox="0 0 100 100" fill="none" xmlns="http://www.w3.org/2000/svg">
<rect x="1.5" y="1.5" width="97" height="97" fill="#D9D9D9" stroke="#00033D" stroke-width="3"/>
<path d="M31.9864 52.8927C30.201 54.6781 28.2265 55.8316 26.5364 56.3026C24.7952 56.7878 23.6947 56.4836 23.1558 55.9446C22.6168 55.4057 22.3126 54.3052 22.7978 52.564C23.2688 50.8739 24.4223 48.8994 26.2077 47.114C27.993 45.3287 29.9676 44.1751 31.6577 43.7041C33.3988 43.219 34.4993 43.5232 35.0383 44.0621C35.5772 44.6011 35.8815 45.7016 35.3963 47.4427C34.9253 49.1328 33.7718 51.1074 31.9864 52.8927Z" fill="white" stroke="#00033D" stroke-width="3"/>
<path d="M52.8145 73.7201C51.0292 75.5055 49.0546 76.659 47.3645 77.13C45.6234 77.6152 44.5229 77.311 43.9839 76.772C43.445 76.2331 43.1407 75.1326 43.6259 73.3914C44.0969 71.7013 45.2504 69.7268 47.0358 67.9414C48.8212 66.156 50.7957 65.0025 52.4858 64.5315C54.227 64.0463 55.3274 64.3506 55.8664 64.8895C56.4054 65.4285 56.7096 66.529 56.2244 68.2701C55.7534 69.9602 54.5999 71.9348 52.8145 73.7201Z" fill="white" stroke="#00033D" stroke-width="3"/>
<path d="M69.4446 51.0454C64.849 58.6066 60.0086 64.8173 54.7903 67.5155C52.2411 68.8335 49.6355 69.2946 46.893 68.6867C44.1209 68.0722 41.056 66.3311 37.6855 62.9606C34.3306 59.6057 32.5695 56.4296 31.9279 53.4914C31.2898 50.5692 31.7296 47.7504 33.0086 45.0362C35.6058 39.5246 41.6388 34.5134 48.8327 30.5126C49.655 30.0553 50.4659 29.6034 51.265 29.1579C58.7 25.0138 65.1257 21.4322 70.3778 19.3348C73.2833 18.1745 75.7054 17.5217 77.6558 17.4389C79.5673 17.3578 80.9026 17.8237 81.8625 18.7836C82.8252 19.7462 83.2814 21.0591 83.1869 22.9166C83.0901 24.8188 82.415 27.1796 81.2086 30.0145C78.8298 35.6044 74.603 42.5586 69.6646 50.6835L69.4446 51.0454Z" fill="white" stroke="#00033D" stroke-width="3"/>
<path d="M39.8282 65.8784C38.0428 67.6638 36.0683 68.8173 34.3782 69.2883C32.637 69.7735 31.5365 69.4692 30.9976 68.9303C30.4586 68.3913 30.1544 67.2908 30.6396 65.5497C31.1106 63.8596 32.2641 61.885 34.0495 60.0997C35.8348 58.3143 37.8094 57.1608 39.4995 56.6898C41.2406 56.2046 42.3411 56.5088 42.8801 57.0478C43.419 57.5867 43.7233 58.6872 43.2381 60.4284C42.7671 62.1185 41.6136 64.093 39.8282 65.8784Z" fill="white" stroke="#00033D" stroke-width="3"/>
<path d="M80.7584 29.6373L80.6753 29.7001L80.6016 29.7738C80.2665 30.1088 80.0883 30.0957 79.9849 30.0828C79.7689 30.0559 79.3978 29.9022 78.8347 29.447C78.2898 29.0065 77.7108 28.406 77.067 27.7017C76.9174 27.538 76.7632 27.3675 76.6058 27.1934C76.116 26.6516 75.595 26.0754 75.0831 25.5635C74.5803 25.0606 74.0015 24.5354 73.4471 24.0321C73.2576 23.8602 73.071 23.6908 72.8912 23.5257C72.1546 22.8496 71.5032 22.2209 71.013 21.6237C70.5052 21.0051 70.2981 20.57 70.2514 20.2943C70.2279 20.1556 70.2216 20.0046 70.451 19.7517C71.7468 18.7983 74.166 17.8648 76.5899 17.5619C77.811 17.4093 78.9396 17.4298 79.8519 17.6376C80.7644 17.8454 81.346 18.2108 81.6765 18.6571L81.8191 18.8499L82.0148 18.9885C82.3128 19.1997 82.6637 19.7126 82.8799 20.6969C83.0884 21.6465 83.1241 22.836 82.9841 24.0842C82.8446 25.3273 82.5387 26.5578 82.1168 27.5793C81.6819 28.6322 81.1855 29.3149 80.7584 29.6373Z" fill="white" stroke="#00033D" stroke-width="3"/>
<path d="M60.4809 41.9474C59.016 43.4123 56.8873 43.3774 55.7199 42.21C54.5525 41.0425 54.5175 38.9139 55.9824 37.449C57.4473 35.9841 59.5759 36.019 60.7434 37.1865C61.9108 38.3539 61.9457 40.4826 60.4809 41.9474Z" fill="white" stroke="#00033D" stroke-width="3"/>
<rect x="58.6211" y="38.8929" width="6.88611" height="1.61668" rx="0.808342" transform="rotate(45 58.6211 38.8929)" fill="white" stroke="#00033D" stroke-width="1.61668"/>
<ellipse cx="58.6959" cy="40.1111" rx="0.36051" ry="0.390816" transform="rotate(45 58.6959 40.1111)" fill="white"/>
<line y1="-1.5" x2="12.1269" y2="-1.5" transform="matrix(-0.725368 0.688361 -0.695287 -0.718732 25.8013 73.8574)" stroke="#00033D" stroke-width="3"/>
<line y1="-1.5" x2="12.1269" y2="-1.5" transform="matrix(-0.725368 0.688361 -0.695287 -0.718732 25.2002 62.9678)" stroke="#00033D" stroke-width="3"/>
<line y1="-1.5" x2="12.1269" y2="-1.5" transform="matrix(-0.725368 0.688361 -0.695287 -0.718732 37.0503 74.8179)" stroke="#00033D" stroke-width="3"/>
</svg>
