<svg width="100" height="100" viewBox="0 0 100 100" fill="none" xmlns="http://www.w3.org/2000/svg">
<rect x="1.5" y="1.5" width="97" height="97" fill="#D9D9D9" stroke="#00033D" stroke-width="3"/>
<path d="M53 34.5C53 45.8003 43.6198 55 32 55C20.3802 55 11 45.8003 11 34.5C11 23.1997 20.3802 14 32 14C43.6198 14 53 23.1997 53 34.5Z" fill="white" stroke="#00033D" stroke-width="2"/>
<path d="M89 35.5C89 46.8003 79.6198 56 68 56C56.3802 56 47 46.8003 47 35.5C47 24.1997 56.3802 15 68 15C79.6198 15 89 24.1997 89 35.5Z" fill="white" stroke="#00033D" stroke-width="2"/>
<circle cx="50.5" cy="66.5" r="20.5" fill="white" stroke="#00033D" stroke-width="2"/>
<line x1="24" y1="24" x2="24" y2="44" stroke="#00033D" stroke-width="2" stroke-linecap="round"/>
<line x1="39" y1="30" x2="39" y2="44" stroke="#00033D" stroke-width="2" stroke-linecap="round"/>
<line x1="1" y1="-1" x2="16" y2="-1" transform="matrix(1 0.000214945 -0.000218141 1 23 45)" stroke="#00033D" stroke-width="2" stroke-linecap="round"/>
<path d="M25 24H35.1111M35.1111 24L39 25.8182V29H35.1111V27.1818C35.1111 27.7879 35.1111 28 35.1111 24Z" stroke="#00033D" stroke-width="2"/>
<path d="M29 38V32L34 35L29 38Z" stroke="#00033D" stroke-width="2"/>
<rect x="61" y="25" width="16" height="19" rx="2" fill="white" stroke="#00033D" stroke-width="2"/>
<line x1="65" y1="29" x2="73" y2="29" stroke="#00033D" stroke-width="2" stroke-linecap="round"/>
<line x1="65" y1="34" x2="73" y2="34" stroke="#00033D" stroke-width="2" stroke-linecap="round"/>
<line x1="65" y1="39" x2="71" y2="39" stroke="#00033D" stroke-width="2" stroke-linecap="round"/>
<mask id="path-14-outside-1_42_142" maskUnits="userSpaceOnUse" x="42" y="58" width="17" height="17" fill="black">
<rect fill="white" x="42" y="58" width="17" height="17"/>
<path d="M52.5858 61.4142L45.3917 68.6083C45.1971 68.8029 45.0997 68.9003 45.0328 69.0186C44.9658 69.1368 44.9324 69.2704 44.8656 69.5374L44.2021 72.1915C44.1119 72.5526 44.0667 72.7331 44.1668 72.8332C44.2669 72.9333 44.4474 72.8881 44.8084 72.7979L44.8085 72.7979L47.4626 72.1344C47.7296 72.0676 47.8632 72.0342 47.9814 71.9672C48.0997 71.9003 48.1971 71.8029 48.3917 71.6083L55.5858 64.4142L55.5858 64.4142C56.2525 63.7475 56.5858 63.4142 56.5858 63C56.5858 62.5858 56.2525 62.2525 55.5858 61.5858L55.4142 61.4142C54.7475 60.7475 54.4142 60.4142 54 60.4142C53.5858 60.4142 53.2525 60.7475 52.5858 61.4142Z"/>
</mask>
<path d="M45.3917 68.6083L46.8059 70.0225L46.8059 70.0225L45.3917 68.6083ZM52.5858 61.4142L51.1716 60L51.1716 60L52.5858 61.4142ZM55.4142 61.4142L54 62.8284L54 62.8284L55.4142 61.4142ZM55.5858 61.5858L57 60.1716L57 60.1716L55.5858 61.5858ZM55.5858 64.4142L57 65.8284L55.5858 64.4142ZM48.3917 71.6083L46.9775 70.1941L46.9775 70.1941L48.3917 71.6083ZM44.8656 69.5374L46.8059 70.0225L46.8059 70.0225L44.8656 69.5374ZM44.2021 72.1915L42.2618 71.7065H42.2618L44.2021 72.1915ZM44.8085 72.7979L44.3234 70.8576L44.2362 70.8794L44.1514 70.9089L44.8085 72.7979ZM47.4626 72.1344L46.9775 70.1941L46.9775 70.1941L47.4626 72.1344ZM44.1668 72.8332L45.581 71.419L45.581 71.419L44.1668 72.8332ZM44.8084 72.7979L45.2935 74.7382L45.3806 74.7164L45.4655 74.6869L44.8084 72.7979ZM47.9814 71.9672L46.9961 70.2268L46.996 70.2268L47.9814 71.9672ZM55.5858 64.4142L57 65.8284L57 65.8284L55.5858 64.4142ZM45.0328 69.0186L43.2924 68.0332L43.2924 68.0332L45.0328 69.0186ZM46.8059 70.0225L54 62.8284L51.1716 60L43.9775 67.1941L46.8059 70.0225ZM54 62.8284L54.1716 63L57 60.1716L56.8284 60L54 62.8284ZM54.1716 63L46.9775 70.1941L49.8059 73.0225L57 65.8284L54.1716 63ZM42.9254 69.0524L42.2618 71.7065L46.1424 72.6766L46.8059 70.0225L42.9254 69.0524ZM45.2935 74.7382L47.9476 74.0746L46.9775 70.1941L44.3234 70.8576L45.2935 74.7382ZM42.2618 71.7065C42.233 71.8218 42.1506 72.1296 42.1226 72.4155C42.0922 72.7261 42.0651 73.5599 42.7526 74.2474L45.581 71.419C45.8467 71.6847 45.9991 72.0005 46.0664 72.2928C46.1251 72.5478 46.1097 72.7429 46.1036 72.8049C46.097 72.8724 46.0879 72.904 46.097 72.8631C46.1054 72.8253 46.1179 72.7747 46.1424 72.6766L42.2618 71.7065ZM44.1514 70.9089L44.1514 70.9089L45.4655 74.6869L45.4655 74.6869L44.1514 70.9089ZM44.3234 70.8576C44.2253 70.8821 44.1747 70.8946 44.1369 70.903C44.096 70.9121 44.1276 70.903 44.1951 70.8964C44.2571 70.8903 44.4522 70.8749 44.7072 70.9336C44.9995 71.0009 45.3154 71.1533 45.581 71.419L42.7526 74.2474C43.4401 74.9349 44.2739 74.9078 44.5845 74.8774C44.8704 74.8494 45.1782 74.767 45.2935 74.7382L44.3234 70.8576ZM46.9775 70.1941C46.9528 70.2188 46.9317 70.2399 46.9121 70.2593C46.8927 70.2787 46.8767 70.2945 46.8629 70.308C46.8492 70.3215 46.8391 70.3312 46.8317 70.3382C46.8281 70.3416 46.8255 70.3441 46.8236 70.3458C46.8218 70.3475 46.8209 70.3483 46.8209 70.3482C46.8209 70.3482 46.822 70.3473 46.8239 70.3456C46.8259 70.3439 46.8289 70.3413 46.8329 70.338C46.8409 70.3314 46.8529 70.3216 46.8687 70.3098C46.8845 70.2979 46.9036 70.2843 46.9256 70.2699C46.9478 70.2553 46.9713 70.2408 46.9961 70.2268L48.9668 73.7076C49.376 73.476 49.6864 73.1421 49.8059 73.0225L46.9775 70.1941ZM47.9476 74.0746C48.1117 74.0336 48.5577 73.9393 48.9669 73.7076L46.996 70.2268C47.0208 70.2128 47.0453 70.2001 47.0692 70.1886C47.0929 70.1772 47.1144 70.1678 47.1328 70.1603C47.151 70.1529 47.1655 70.1475 47.1753 70.1441C47.1802 70.1424 47.1839 70.1412 47.1864 70.1404C47.1889 70.1395 47.1902 70.1391 47.1903 70.1391C47.1903 70.1391 47.1892 70.1395 47.1868 70.1402C47.1843 70.1409 47.1808 70.1419 47.1761 70.1432C47.1663 70.1459 47.1528 70.1496 47.1341 70.1544C47.1155 70.1593 47.0937 70.1649 47.0671 70.1716C47.0403 70.1784 47.0114 70.1856 46.9775 70.1941L47.9476 74.0746ZM54.1716 63C54.3435 63.1719 54.4698 63.2984 54.5738 63.4078C54.6786 63.518 54.7263 63.5752 54.7457 63.6007C54.7644 63.6252 54.7226 63.5764 54.6774 63.4678C54.6254 63.3433 54.5858 63.181 54.5858 63H58.5858C58.5858 62.1798 58.2282 61.5707 57.9258 61.1744C57.6586 60.8242 57.2934 60.4649 57 60.1716L54.1716 63ZM57 65.8284L57 65.8284L54.1716 63L54.1716 63L57 65.8284ZM57 65.8284C57.2934 65.5351 57.6586 65.1758 57.9258 64.8256C58.2282 64.4292 58.5858 63.8202 58.5858 63H54.5858C54.5858 62.819 54.6254 62.6567 54.6774 62.5322C54.7226 62.4236 54.7644 62.3748 54.7457 62.3993C54.7263 62.4248 54.6786 62.482 54.5738 62.5922C54.4698 62.7016 54.3435 62.8281 54.1716 63L57 65.8284ZM54 62.8284C54.1719 62.6565 54.2984 62.5302 54.4078 62.4262C54.518 62.3214 54.5752 62.2737 54.6007 62.2543C54.6252 62.2356 54.5764 62.2774 54.4678 62.3226C54.3433 62.3746 54.181 62.4142 54 62.4142V58.4142C53.1798 58.4142 52.5707 58.7718 52.1744 59.0742C51.8242 59.3414 51.4649 59.7066 51.1716 60L54 62.8284ZM56.8284 60C56.5351 59.7066 56.1758 59.3414 55.8256 59.0742C55.4293 58.7718 54.8202 58.4142 54 58.4142V62.4142C53.819 62.4142 53.6567 62.3746 53.5322 62.3226C53.4236 62.2774 53.3748 62.2356 53.3993 62.2543C53.4248 62.2737 53.482 62.3214 53.5922 62.4262C53.7016 62.5302 53.8281 62.6565 54 62.8284L56.8284 60ZM43.9775 67.1941C43.8579 67.3136 43.524 67.624 43.2924 68.0332L46.7732 70.0039C46.7592 70.0287 46.7447 70.0522 46.7301 70.0744C46.7157 70.0964 46.7021 70.1155 46.6902 70.1313C46.6784 70.1471 46.6686 70.1591 46.662 70.1671C46.6587 70.1711 46.6561 70.1741 46.6544 70.1761C46.6527 70.178 46.6518 70.1791 46.6518 70.1791C46.6517 70.1791 46.6525 70.1782 46.6542 70.1764C46.6559 70.1745 46.6584 70.1719 46.6618 70.1683C46.6688 70.1609 46.6785 70.1508 46.692 70.1371C46.7055 70.1233 46.7213 70.1073 46.7407 70.0879C46.7601 70.0683 46.7812 70.0472 46.8059 70.0225L43.9775 67.1941ZM46.8059 70.0225C46.8144 69.9886 46.8216 69.9597 46.8284 69.9329C46.8351 69.9063 46.8407 69.8845 46.8456 69.8659C46.8504 69.8472 46.8541 69.8337 46.8568 69.8239C46.8581 69.8192 46.8591 69.8157 46.8598 69.8132C46.8605 69.8108 46.8609 69.8097 46.8609 69.8097C46.8609 69.8098 46.8605 69.8111 46.8596 69.8136C46.8588 69.8161 46.8576 69.8198 46.8559 69.8247C46.8525 69.8345 46.8471 69.849 46.8397 69.8672C46.8322 69.8856 46.8228 69.9071 46.8114 69.9308C46.7999 69.9547 46.7872 69.9792 46.7732 70.0039L43.2924 68.0332C43.0607 68.4423 42.9664 68.8883 42.9254 69.0524L46.8059 70.0225Z" fill="black" mask="url(#path-14-outside-1_42_142)"/>
<path d="M51.5 61.5L54.5 59.5L57.5 62.5L55.5 65.5L51.5 61.5Z" fill="black"/>
<line x1="24" y1="24" x2="25" y2="24" stroke="#00033D" stroke-width="2" stroke-linecap="round"/>
</svg>
