<svg width="100" height="100" viewBox="0 0 100 100" fill="none" xmlns="http://www.w3.org/2000/svg">
<rect x="1.5" y="1.5" width="97" height="97" fill="#D9D9D9" stroke="#00033D" stroke-width="3"/>
<rect x="25" y="19" width="51" height="63" rx="4" fill="white" stroke="#00033D" stroke-width="2"/>
<path d="M35 36C36.3881 36 37.7333 35.5187 38.8064 34.6381C39.8794 33.7574 40.6139 32.532 40.8847 31.1705C41.1555 29.8091 40.9459 28.3958 40.2915 27.1716C39.6372 25.9474 38.5786 24.9879 37.2961 24.4567C36.0136 23.9255 34.5867 23.8554 33.2583 24.2584C31.9299 24.6613 30.7824 25.5124 30.0112 26.6666C29.24 27.8208 28.8928 29.2067 29.0289 30.5881C29.165 31.9695 29.7758 33.2611 30.7574 34.2426" stroke="black" stroke-width="2" stroke-linecap="round"/>
<path d="M37.6665 28.6667L35.7352 30.9842C35.0796 31.7709 34.7519 32.1643 34.3113 32.1842C33.8707 32.2042 33.5087 31.8422 32.7846 31.1181L32.3332 30.6667" stroke="black" stroke-width="2" stroke-linecap="round"/>
<path d="M35 55C36.3881 55 37.7333 54.5187 38.8064 53.6381C39.8794 52.7574 40.6139 51.532 40.8847 50.1705C41.1555 48.8091 40.9459 47.3958 40.2915 46.1716C39.6372 44.9474 38.5786 43.9879 37.2961 43.4567C36.0136 42.9255 34.5867 42.8554 33.2583 43.2584C31.9299 43.6613 30.7824 44.5124 30.0112 45.6666C29.24 46.8208 28.8928 48.2067 29.0289 49.5881C29.165 50.9695 29.7758 52.2611 30.7574 53.2426" stroke="black" stroke-width="2" stroke-linecap="round"/>
<path d="M37.6665 47.6667L35.7352 49.9842C35.0796 50.7709 34.7519 51.1643 34.3113 51.1842C33.8707 51.2042 33.5087 50.8422 32.7846 50.1181L32.3332 49.6667" stroke="black" stroke-width="2" stroke-linecap="round"/>
<path d="M35 74C36.3881 74 37.7333 73.5187 38.8064 72.6381C39.8794 71.7574 40.6139 70.532 40.8847 69.1705C41.1555 67.8091 40.9459 66.3958 40.2915 65.1716C39.6372 63.9474 38.5786 62.9879 37.2961 62.4567C36.0136 61.9255 34.5867 61.8554 33.2583 62.2584C31.9299 62.6613 30.7824 63.5124 30.0112 64.6666C29.24 65.8208 28.8928 67.2067 29.0289 68.5881C29.165 69.9695 29.7758 71.2611 30.7574 72.2426" stroke="black" stroke-width="2" stroke-linecap="round"/>
<path d="M37.6665 66.6667L35.7352 68.9842C35.0796 69.7709 34.7519 70.1643 34.3113 70.1842C33.8707 70.2042 33.5087 69.8422 32.7846 69.1181L32.3332 68.6667" stroke="black" stroke-width="2" stroke-linecap="round"/>
<line x1="47" y1="30" x2="68" y2="30" stroke="#00033D" stroke-width="2" stroke-linecap="round"/>
<line x1="47" y1="50" x2="68" y2="50" stroke="#00033D" stroke-width="2" stroke-linecap="round"/>
<line x1="47" y1="68" x2="68" y2="68" stroke="#00033D" stroke-width="2" stroke-linecap="round"/>
</svg>
